#!OML:ASF F:\VICON\USERDATA\INSTALL\rory3\rory3.ASF
:FULLY-SPECIFIED
:DEGREES
191
root 0.0618587 18.0732 12.3784 -170.608 -2.78694 -180.692
lowerback 9.11491 2.16742 -1.82783
upperback 1.78644 2.63136 1.98346
thorax -3.42975 1.26838 2.77347
lowerneck -15.5311 1.51158 -11.1402
upperneck 37.3124 1.31612 2.5903
head 15.676 -1.83519 2.98401
rclavicle -1.96797e-014 -3.89618e-014
rhumerus -28.1421 -7.96686 -79.4226
rradius 35.5303
rwrist 18.6762
rhand -20.9152 2.70333
rfingers 7.12502
rthumb 5.45622 -27.2064
lclavicle -1.96797e-014 -3.89618e-014
lhumerus -35.1289 12.5911 79.8414
lradius 30.2549
lwrist -4.73263
lhand -12.9961 26.061
lfingers 7.12502
lthumb 13.0969 55.6298
rfemur -10.0766 0.278709 24.7356
rtibia 16.3559
rfoot -13.5186 -1.87467
rtoes 14.2672
lfemur -62.7395 -0.849177 -24.0712
ltibia 81.0964
lfoot -21.7783 -3.4491
ltoes -13.1412
192
root 0.0549158 18.0655 12.3399 -170.423 -2.9344 -180.612
lowerback 9.08237 2.13666 -1.74839
upperback 1.77291 2.59929 1.97751
thorax -3.41983 1.25214 2.72725
lowerneck -15.4595 1.5089 -11.1022
upperneck 37.2187 1.33566 2.50536
head 15.6131 -1.82305 2.94277
rclavicle 1.43125e-014 -1.43125e-014
rhumerus -27.9978 -7.85615 -79.5965
rradius 35.5427
rwrist 18.7548
rhand -21.1189 2.41253
rfingers 7.12502
rthumb 5.25958 -27.5022
lclavicle 1.43125e-014 -1.43125e-014
lhumerus -35.043 12.512 79.915
lradius 30.2722
lwrist -4.65644
lhand -13.0093 26.2419
lfingers 7.12502
lthumb 13.0842 55.8115
rfemur -10.1515 0.141089 24.8238
rtibia 16.3976
rfoot -13.6385 -1.77238
rtoes 13.8818
lfemur -62.9133 -0.875559 -24.0735
ltibia 81.2394
lfoot -21.9707 -3.36216
ltoes -13.12
193
root 0.0475891 18.0637 12.2985 -170.3 -2.98078 -180.547
lowerback 9.10603 2.17131 -1.70874
upperback 1.73725 2.65069 1.93799
thorax -3.46947 1.27916 2.65601
lowerneck -15.4283 1.58202 -10.7961
upperneck 37.3064 1.37239 2.379
head 15.6487 -1.79056 2.84121
rclavicle 1.05356e-014 4.77083e-015
rhumerus -27.9598 -7.95052 -79.7413
rradius 35.5267
rwrist 18.9294
rhand -21.2146 2.21599
rfingers 7.12502
rthumb 5.16712 -27.701
lclavicle 1.05356e-014 4.77083e-015
lhumerus -35.0756 12.171 79.991
lradius 30.3189
lwrist -4.48154
lhand -13.1316 26.2216
lfingers 7.12502
lthumb 12.9663 55.7987
rfemur -10.1232 0.0715411 24.8793
rtibia 16.3551
rfoot -13.7292 -1.69702
rtoes 13.0083
lfemur -63.0289 -0.785877 -24.1305
ltibia 81.3828
lfoot -22.1405 -3.32549
ltoes -13.6014
194
root 0.0425555 18.0643 12.2532 -170.203 -3.03948 -180.532
lowerback 9.15188 2.18503 -1.72719
upperback 1.72477 2.66654 1.88733
thorax -3.50724 1.28817 2.61005
lowerneck -15.7638 1.6966 -10.3874
upperneck 37.6916 1.52124 2.09765
head 15.9185 -1.74408 2.67889
rclavicle -5.56597e-015 -1.51076e-014
rhumerus -27.9025 -8.01101 -79.886
rradius 35.5389
rwrist 19.0401
rhand -21.174 2.337
rfingers 7.12502
rthumb 5.20633 -27.579
lclavicle -5.56597e-015 -1.51076e-014
lhumerus -35.03 11.9748 80.0116
lradius 30.238
lwrist -4.43825
lhand -13.2497 26.1187
lfingers 7.12502
lthumb 12.8525 55.703
rfemur -10.0545 -0.0481192 24.8953
rtibia 16.2684
rfoot -13.7723 -1.6807
rtoes 12.1553
lfemur -63.0817 -0.662431 -24.2629
ltibia 81.5722
lfoot -22.1668 -3.30758
ltoes -14.0895
195
root 0.0349938 18.0629 12.2087 -170.079 -3.16698 -180.453
lowerback 9.20088 2.16297 -1.60314
upperback 1.76207 2.64387 1.84861
thorax -3.48683 1.27349 2.50196
lowerneck -16.2423 1.71005 -10.254
upperneck 37.9525 1.62295 1.95138
head 16.1657 -1.71767 2.61793
rclavicle -5.36719e-015 -3.97569e-015
rhumerus -27.7013 -7.87533 -80.0894
rradius 35.5792
rwrist 18.9923
rhand -21.2075 2.46105
rfingers 7.12502
rthumb 5.17403 -27.4558
lclavicle -5.36719e-015 -3.97569e-015
lhumerus -34.7372 12.0161 80.008
lradius 29.9957
lwrist -4.57044
lhand -13.2071 26.2129
lfingers 7.12502
lthumb 12.8935 55.7946
rfemur -9.96241 -0.199916 24.997
rtibia 16.081
rfoot -13.7646 -1.72511
rtoes 10.7639
lfemur -63.1916 -0.556875 -24.3506
ltibia 81.8293
lfoot -22.1099 -3.22093
ltoes -13.8957
196
root 0.02353 18.0591 12.1586 -169.924 -3.2423 -180.345
lowerback 9.21432 2.18335 -1.45939
upperback 1.74812 2.68455 1.83171
thorax -3.50361 1.29243 2.39772
lowerneck -16.3706 1.66057 -10.273
upperneck 37.968 1.58769 1.95594
head 16.2088 -1.7294 2.62033
rclavicle -5.1684e-015 7.15625e-015
rhumerus -27.5665 -7.74771 -80.2006
rradius 35.5539
rwrist 18.9299
rhand -21.2905 2.51291
rfingers 7.12502
rthumb 5.09386 -27.4059
lclavicle -5.1684e-015 7.15625e-015
lhumerus -34.5026 12.0888 80.0353
lradius 29.7349
lwrist -4.80257
lhand -13.1757 26.1684
lfingers 7.12502
lthumb 12.9238 55.7482
rfemur -9.81485 -0.215755 25.0784
rtibia 15.8168
rfoot -13.8521 -1.7322
rtoes 10.5126
lfemur -63.3548 -0.416165 -24.4062
ltibia 82.1539
lfoot -22.0529 -3.2326
ltoes -13.2999
197
root 0.0132865 18.0551 12.1089 -169.829 -3.30328 -180.288
lowerback 9.27644 2.2333 -1.37937
upperback 1.75705 2.75609 1.81197
thorax -3.52792 1.32642 2.32137
lowerneck -16.4216 1.60992 -10.3556
upperneck 38.0063 1.52887 2.0048
head 16.2452 -1.75879 2.64772
rclavicle 2.74323e-014 3.10104e-014
rhumerus -27.558 -7.64524 -80.2753
rradius 35.7406
rwrist 18.7567
rhand -21.1973 2.05451
rfingers 7.12502
rthumb 5.18387 -27.8621
lclavicle 2.74323e-014 3.10104e-014
lhumerus -34.3353 12.1143 80.0978
lradius 29.6676
lwrist -5.00559
lhand -13.1055 26.751
lfingers 7.12502
lthumb 12.9915 56.3265
rfemur -9.60013 -0.254828 25.0966
rtibia 15.5541
rfoot -13.9512 -1.6436
rtoes 11.0026
lfemur -63.4986 -0.281453 -24.4908
ltibia 82.4986
lfoot -22.0021 -3.38946
ltoes -13.5248
198
root 0.00427066 18.054 12.0612 -169.746 -3.31875 -180.209
lowerback 9.30061 2.2609 -1.31206
upperback 1.79695 2.79514 1.79963
thorax -3.49806 1.34303 2.2658
lowerneck -16.4616 1.59769 -10.3965
upperneck 38.0012 1.53032 2.03031
head 16.2517 -1.7561 2.66789
rclavicle 3.33958e-014 9.54166e-015
rhumerus -27.4405 -7.40309 -80.4301
rradius 35.8783
rwrist 18.6742
rhand -21.3383 1.54772
rfingers 7.12502
rthumb 5.04771 -28.3722
lclavicle 3.33958e-014 9.54166e-015
lhumerus -34.1779 12.2148 80.1127
lradius 29.6063
lwrist -5.16949
lhand -13.14 27.085
lfingers 7.12502
lthumb 12.9582 56.6626
rfemur -9.36304 -0.285281 25.1491
rtibia 15.2427
rfoot -13.9494 -1.59262
rtoes 10.9627
lfemur -63.6241 -0.0999896 -24.5304
ltibia 82.8493
lfoot -21.9774 -3.4758
ltoes -14.0549
199
root -0.00691115 18.0509 12.0104 -169.685 -3.24802 -180.175
lowerback 9.35418 2.27437 -1.29155
upperback 1.8144 2.81138 1.7329
thorax -3.50609 1.35017 2.18144
lowerneck -16.392 1.61527 -10.319
upperneck 37.8671 1.55252 2.01842
head 16.1638 -1.72128 2.65276
rclavicle 3.67752e-014 -1.59028e-014
rhumerus -27.3349 -7.03354 -80.7111
rradius 35.9968
rwrist 18.5764
rhand -21.35 1.66165
rfingers 7.12502
rthumb 5.03636 -28.2585
lclavicle 3.67752e-014 -1.59028e-014
lhumerus -34.0472 12.407 79.9971
lradius 29.4108
lwrist -5.40666
lhand -13.2605 26.7828
lfingers 7.12502
lthumb 12.8421 56.3678
rfemur -9.07748 -0.331165 25.137
rtibia 14.8651
rfoot -13.8147 -1.45829
rtoes 10.8941
lfemur -63.6349 0.1519 -24.6297
ltibia 83.2145
lfoot -21.97 -3.50999
ltoes -13.8138
200
root -0.018358 18.0515 11.9582 -169.608 -3.20131 -180.144
lowerback 9.42668 2.3093 -1.27747
upperback 1.80709 2.85699 1.66078
thorax -3.55173 1.37306 2.09018
lowerneck -16.2868 1.60679 -10.2653
upperneck 37.7397 1.51305 2.05943
head 16.0748 -1.70909 2.65381
rclavicle -7.35503e-015 -7.95139e-016
rhumerus -27.3208 -6.79671 -80.9062
rradius 36.2071
rwrist 18.4696
rhand -20.4431 2.03957
rfingers 7.12502
rthumb 5.91201 -27.858
lclavicle -7.35503e-015 -7.95139e-016
lhumerus -33.8855 12.3962 79.9646
lradius 29.2508
lwrist -5.52671
lhand -13.411 27.0262
lfingers 7.12502
lthumb 12.697 56.6203
rfemur -8.84498 -0.420186 25.1338
rtibia 14.5549
rfoot -13.6588 -1.28903
rtoes 11.2275
lfemur -63.6911 0.407612 -24.7436
ltibia 83.5451
lfoot -21.8728 -3.73629
ltoes -12.5887
